grf
version=1
nRows=15
nColumns=37
inDegrees=no
endheader
time	ground_force_1_vx	ground_force_1_vy	ground_force_1_vz	ground_force_1_px	ground_force_1_py	ground_force_1_pz	ground_moment_1_mx	ground_moment_1_my	ground_moment_1_mz	ground_force_2_vx	ground_force_2_vy	ground_force_2_vz	ground_force_2_px	ground_force_2_py	ground_force_2_pz	ground_moment_2_mx	ground_moment_2_my	ground_moment_2_mz	ground_force_3_vx	ground_force_3_vy	ground_force_3_vz	ground_force_3_px	ground_force_3_py	ground_force_3_pz	ground_moment_3_mx	ground_moment_3_my	ground_moment_3_mz	ground_force_4_vx	ground_force_4_vy	ground_force_4_vz	ground_force_4_px	ground_force_4_py	ground_force_4_pz	ground_moment_4_mx	ground_moment_4_my	ground_moment_4_mz
      0.00000000	      0.00000000	     -0.00000000	      0.00000000	      0.00000000	      0.00000000	      0.00000000	      0.00000000	      0.00000000	      0.00000000	     -5.84310532	     21.25851440	   -360.42230225	   -283.63971165	  -1043.54727129	      0.00000000	      0.00000000	      0.00000000	   2348.32795163	      3.94780503	    -17.97363888	   -406.40969849	   -321.89809047	   -797.85348627	      0.00000000	      0.00000000	     -0.00000000	  -2658.52494440	      0.00000000	     -0.00000000	      0.00000000	      0.00000000	      0.00000000	      0.00000000	      0.00000000	      0.00000000	      0.00000000
      0.01000000	      0.00000000	     -0.00000000	      0.00000000	      0.00000000	      0.00000000	      0.00000000	      0.00000000	      0.00000000	      0.00000000	     -5.84541798	     21.47981834	   -364.48413086	   -283.97551387	  -1044.71861853	      0.00000000	     -0.00000000	      0.00000000	   2344.23452927	      3.81456225	    -17.22264132	   -403.62033081	   -322.13920335	   -797.61519926	      0.00000000	      0.00000000	     -0.00000000	  -2643.44729001	      0.00000000	     -0.00000000	      0.00000000	      0.00000000	      0.00000000	      0.00000000	      0.00000000	      0.00000000	      0.00000000
      0.02000000	      0.00000000	     -0.00000000	      0.00000000	      0.00000000	      0.00000000	      0.00000000	      0.00000000	      0.00000000	      0.00000000	     -5.66530514	     22.15021706	   -367.12881470	   -283.97541229	  -1045.53009353	      0.00000000	      0.00000000	      0.00000000	   2453.02733762	      3.54842991	    -17.04639275	   -401.00274658	   -321.37904828	   -796.80903170	      0.00000000	      0.00000000	     -0.00000000	  -2590.69185558	      0.00000000	     -0.00000000	      0.00000000	      0.00000000	      0.00000000	      0.00000000	      0.00000000	      0.00000000	      0.00000000
      0.03000000	      0.00000000	     -0.00000000	      0.00000000	      0.00000000	      0.00000000	      0.00000000	      0.00000000	      0.00000000	      0.00000000	     -5.62354708	     22.32661819	   -369.95382690	   -284.40300373	  -1045.46394075	      0.00000000	      0.00000000	      0.00000000	   2442.26876581	      2.88365671	    -16.69168879	   -398.90353394	   -321.65650369	   -797.09229479	      0.00000000	      0.00000000	     -0.00000000	  -2566.02329855	      0.00000000	     -0.00000000	      0.00000000	      0.00000000	      0.00000000	      0.00000000	      0.00000000	      0.00000000	      0.00000000
      0.04000000	      0.00000000	     -0.00000000	      0.00000000	      0.00000000	      0.00000000	      0.00000000	      0.00000000	      0.00000000	      0.00000000	     -5.48845053	     23.13000679	   -372.42559814	   -284.48914316	  -1045.72954647	      0.00000000	     -0.00000000	      0.00000000	   2312.84133030	      1.99568557	    -16.42722529	   -396.46527100	   -321.03557100	   -797.02436433	      0.00000000	      0.00000000	     -0.00000000	  -2642.51444112	      0.00000000	     -0.00000000	      0.00000000	      0.00000000	      0.00000000	      0.00000000	      0.00000000	      0.00000000	      0.00000000
      0.05000000	      0.00000000	     -0.00000000	      0.00000000	      0.00000000	      0.00000000	      0.00000000	      0.00000000	      0.00000000	      0.00000000	     -5.17581320	     23.39432716	   -375.76443481	   -285.19367478	  -1044.81889798	      0.00000000	      0.00000000	      0.00000000	   2460.03457994	      1.10932207	    -16.34213267	   -394.89392090	   -321.02372170	   -796.54812858	      0.00000000	      0.00000000	     -0.00000000	  -2436.90339841	      0.00000000	     -0.00000000	      0.00000000	      0.00000000	      0.00000000	      0.00000000	      0.00000000	      0.00000000	      0.00000000
      0.06000000	      0.00000000	     -0.00000000	      0.00000000	      0.00000000	      0.00000000	      0.00000000	      0.00000000	      0.00000000	      0.00000000	     -4.77368546	     23.49784851	   -376.99401855	   -285.32718633	  -1044.17351388	      0.00000000	      0.00000000	      0.00000000	   2524.87692249	      0.66700712	    -16.02982908	   -392.27404785	   -320.41141875	   -798.30472803	      0.00000000	      0.00000000	     -0.00000000	  -2596.03208548	      0.00000000	     -0.00000000	      0.00000000	      0.00000000	      0.00000000	      0.00000000	      0.00000000	      0.00000000	      0.00000000
      0.07000000	      0.00000000	     -0.00000000	      0.00000000	      0.00000000	      0.00000000	      0.00000000	      0.00000000	      0.00000000	      0.00000000	     -4.41488743	     24.33466339	   -379.11822510	   -285.50092321	  -1044.97493445	      0.00000000	      0.00000000	      0.00000000	   2498.54747987	      0.08870934	    -16.47399140	   -393.67636108	   -320.34812773	   -796.88538842	      0.00000000	      0.00000000	      0.00000000	  -2565.24711068	      0.00000000	     -0.00000000	      0.00000000	      0.00000000	      0.00000000	      0.00000000	      0.00000000	      0.00000000	      0.00000000
      0.08000000	      0.00000000	     -0.00000000	      0.00000000	      0.00000000	      0.00000000	      0.00000000	      0.00000000	      0.00000000	      0.00000000	     -4.14713478	     24.47436523	   -379.50555420	   -285.08717478	  -1044.03133719	      0.00000000	     -0.00000000	      0.00000000	   2519.46983821	      0.26613091	    -16.47120860	   -393.48767090	   -320.03759879	   -797.29586222	      0.00000000	      0.00000000	     -0.00000000	  -2576.84317015	      0.00000000	     -0.00000000	      0.00000000	      0.00000000	      0.00000000	      0.00000000	      0.00000000	      0.00000000	      0.00000000
      0.09000000	      0.00000000	     -0.00000000	      0.00000000	      0.00000000	      0.00000000	      0.00000000	      0.00000000	      0.00000000	      0.00000000	     -3.92268705	     24.55156517	   -380.20330811	   -285.39215196	  -1045.09041569	      0.00000000	     -0.00000000	      0.00000000	   2633.04024075	      0.26797471	    -16.64772036	   -393.15200806	   -319.75895960	   -797.62309557	      0.00000000	      0.00000000	     -0.00000000	  -2385.81006543	      0.00000000	     -0.00000000	      0.00000000	      0.00000000	      0.00000000	      0.00000000	      0.00000000	      0.00000000	      0.00000000
      0.10000000	      0.00000000	     -0.00000000	      0.00000000	      0.00000000	      0.00000000	      0.00000000	      0.00000000	      0.00000000	      0.00000000	     -4.00601768	     24.42173004	   -379.83944702	   -285.55165528	  -1044.56440191	      0.00000000	     -0.00000000	      0.00000000	   2505.92816449	      0.79839559	    -16.87151916	   -392.77093506	   -319.92432325	   -798.57403411	      0.00000000	      0.00000000	     -0.00000000	  -2666.38448105	      0.00000000	     -0.00000000	      0.00000000	      0.00000000	      0.00000000	      0.00000000	      0.00000000	      0.00000000	      0.00000000
      0.11000000	      0.00000000	     -0.00000000	      0.00000000	      0.00000000	      0.00000000	      0.00000000	      0.00000000	      0.00000000	      0.00000000	     -4.10064554	     24.05610275	   -378.26773071	   -286.20237373	  -1043.69339561	      0.00000000	      0.00000000	      0.00000000	   2508.21746648	      0.78918097	    -16.65666587	   -395.74975586	   -320.51632311	   -796.59702188	      0.00000000	      0.00000000	      0.00000000	  -2620.09810432	      0.00000000	     -0.00000000	      0.00000000	      0.00000000	      0.00000000	      0.00000000	      0.00000000	      0.00000000	      0.00000000
      0.12000000	      0.00000000	     -0.00000000	      0.00000000	      0.00000000	      0.00000000	      0.00000000	      0.00000000	      0.00000000	      0.00000000	     -3.79636717	     23.75816727	   -376.68588257	   -285.39423067	  -1044.44505006	      0.00000000	      0.00000000	      0.00000000	   2647.69219434	      0.88710641	    -16.42276581	   -396.45666504	   -320.29865101	   -797.52265082	      0.00000000	      0.00000000	     -0.00000000	  -2557.24416855	      0.00000000	     -0.00000000	      0.00000000	      0.00000000	      0.00000000	      0.00000000	      0.00000000	      0.00000000	      0.00000000
      0.13000000	      0.00000000	     -0.00000000	      0.00000000	      0.00000000	      0.00000000	      0.00000000	      0.00000000	      0.00000000	      0.00000000	     -3.96809340	     23.75856972	   -375.62796021	   -285.45691967	  -1044.92647615	      0.00000000	      0.00000000	      0.00000000	   2496.76651069	      1.29052243	    -16.70399677	   -397.68371582	   -320.84302842	   -797.82442214	      0.00000000	      0.00000000	     -0.00000000	  -2742.88646188	      0.00000000	     -0.00000000	      0.00000000	      0.00000000	      0.00000000	      0.00000000	      0.00000000	      0.00000000	      0.00000000
      0.14000000	      0.00000000	     -0.00000000	      0.00000000	      0.00000000	      0.00000000	      0.00000000	      0.00000000	      0.00000000	      0.00000000	     -4.20426941	     23.75893402	   -373.64938354	   -286.29711715	  -1045.62343403	      0.00000000	      0.00000000	      0.00000000	   2475.50481051	      1.82009636	    -16.55575577	   -398.58660889	   -321.16905931	   -798.85089724	      0.00000000	      0.00000000	     -0.00000000	  -2694.51566064	      0.00000000	     -0.00000000	      0.00000000	      0.00000000	      0.00000000	      0.00000000	      0.00000000	      0.00000000	      0.00000000
